# ProBuilder 5.0.7
# https://unity3d.com/unity/features/worldbuilding/probuilder
# 11/9/2025 2:31:03 PM

mtllib ./CylinderBuilding.mtl
o CylinderBuilding

g CylinderBuilding
v -7.310125 -17.48983 0
v -7.310125 17.48983 0
v -5.914016 -17.48983 4.173602
v -5.914016 17.48983 4.173602
v -2.258953 -17.48983 6.75303
v -2.258953 17.48983 6.75303
v 2.258953 -17.48983 6.75303
v 2.258953 17.48983 6.75303
v 5.914016 -17.48983 4.173601
v 5.914016 17.48983 4.173601
v 7.310125 -17.48983 -6.207503E-07
v 7.310125 17.48983 -6.207503E-07
v 5.914016 -17.48983 -4.173601
v 5.914016 17.48983 -4.173601
v 2.258954 -17.48983 -6.753029
v 2.258954 17.48983 -6.753029
v -2.258954 -17.48983 -6.753029
v -2.258954 17.48983 -6.753029
v -5.914015 -17.48983 -4.173602
v -5.914015 17.48983 -4.173602
v 0 -17.48983 0
v 0 17.48983 0

vt -2.319002 -17.48983
vt -2.319002 17.48983
vt 2.081915 -17.48983
vt 2.081915 17.48983
vt -2.425483 -17.48983
vt -2.425483 17.48983
vt 2.0481 -17.48983
vt 2.0481 17.48983
vt -2.258953 -17.48983
vt -2.258953 17.48983
vt 2.258953 -17.48983
vt 2.258953 17.48983
vt -2.0481 -17.48983
vt -2.0481 17.48983
vt 2.425483 -17.48983
vt 2.425483 17.48983
vt -2.081915 -17.48983
vt -2.081915 17.48983
vt 2.319002 -17.48983
vt 2.319002 17.48983
vt -7.310125 0
vt 0 0
vt -5.914016 4.173602
vt 7.310125 0
vt 5.914016 4.173602
vt -2.258953 6.75303
vt 2.258953 6.75303
vt 5.914016 -4.173601
vt -5.914016 -4.173601
vt 2.258954 -6.753029
vt -2.258954 -6.753029

vn -0.9483482 0 0.3172315
vn -0.5765913 0 0.8170328
vn 0 0 1
vn 0.5765913 0 0.8170328
vn 0.9483482 0 0.3172314
vn 0.9483482 0 -0.3172315
vn 0.5765914 0 -0.8170327
vn 0 0 -1
vn -0.5765913 0 -0.8170328
vn -0.9483481 0 -0.3172316
vn 0 -1 0
vn 0 1 0

usemtl Building
f 1/21/11 21/22/11 3/23/11
f 3/23/11 21/22/11 5/26/11
f 5/26/11 21/22/11 7/27/11
f 7/27/11 21/22/11 9/25/11
f 9/25/11 21/22/11 11/24/11
f 11/24/11 21/22/11 13/28/11
f 13/28/11 21/22/11 15/30/11
f 15/30/11 21/22/11 17/31/11
f 17/31/11 21/22/11 19/29/11
f 19/29/11 21/22/11 1/21/11
f 4/25/12 22/22/12 2/24/12
f 6/27/12 22/22/12 4/25/12
f 8/26/12 22/22/12 6/27/12
f 10/23/12 22/22/12 8/26/12
f 12/21/12 22/22/12 10/23/12
f 14/29/12 22/22/12 12/21/12
f 16/31/12 22/22/12 14/29/12
f 18/30/12 22/22/12 16/31/12
f 20/28/12 22/22/12 18/30/12
f 2/24/12 22/22/12 20/28/12
f 4/4/1 2/2/1 1/1/1
f 1/1/1 3/3/1 4/4/1
f 6/8/2 4/6/2 3/5/2
f 3/5/2 5/7/2 6/8/2
f 8/12/3 6/10/3 5/9/3
f 5/9/3 7/11/3 8/12/3
f 10/16/4 8/14/4 7/13/4
f 7/13/4 9/15/4 10/16/4
f 12/20/5 10/18/5 9/17/5
f 9/17/5 11/19/5 12/20/5
f 14/4/6 12/2/6 11/1/6
f 11/1/6 13/3/6 14/4/6
f 16/8/7 14/6/7 13/5/7
f 13/5/7 15/7/7 16/8/7
f 18/12/8 16/10/8 15/9/8
f 15/9/8 17/11/8 18/12/8
f 20/16/9 18/14/9 17/13/9
f 17/13/9 19/15/9 20/16/9
f 2/20/10 20/18/10 19/17/10
f 19/17/10 1/19/10 2/20/10

