# ProBuilder 5.0.7
# https://unity3d.com/unity/features/worldbuilding/probuilder
# 11/9/2025 2:31:03 PM

mtllib ./Sky_Island.mtl
o Sky Island

g Sky Island
v -39.48829 0 -19.07798
v -35.71749 0 -30.2917
v -19.74414 -33.72377 -19.07798
v -19.74414 0 -19.07798
v -25.84542 0 -37.22216
v -13.64286 0 -37.22216
v -3.770783 0 -30.2917
v 1.335144E-05 0 -19.07798
v -3.770783 0 -7.864264
v -13.64286 0 -0.9338017
v -25.84542 0 -0.9338017
v -35.71749 0 -7.864261

vt 23.5816 49.53925
vt 0 49.53925
vt 11.7908 0
vt 39.48829 -19.07798
vt 35.71749 -30.2917
vt 19.74414 -19.07798
vt 25.84542 -37.22216
vt 13.64286 -37.22216
vt 3.770783 -30.2917
vt -1.335144E-05 -19.07798
vt 3.770783 -7.864264
vt 13.64286 -0.9338017
vt 25.84542 -0.9338017
vt 35.71749 -7.864261

vn -0.8287856 -0.4852265 -0.2786928
vn 0 1 0
vn -0.5046622 -0.478069 -0.7188644
vn 0 -0.4738007 -0.8806321
vn 0.504662 -0.478069 -0.7188645
vn 0.8287856 -0.4852266 -0.2786928
vn 0.8287856 -0.4852266 0.2786928
vn 0.5046622 -0.4780691 0.7188645
vn 0 -0.4738007 0.8806321
vn -0.5046622 -0.478069 0.7188644
vn -0.8287856 -0.4852265 0.2786928

usemtl Ground
f 1/1/1 2/2/1 3/3/1
f 4/6/2 2/5/2 1/4/2
f 2/1/3 5/2/3 3/3/3
f 4/6/2 5/7/2 2/5/2
f 5/1/4 6/2/4 3/3/4
f 4/6/2 6/8/2 5/7/2
f 6/1/5 7/2/5 3/3/5
f 4/6/2 7/9/2 6/8/2
f 7/1/6 8/2/6 3/3/6
f 4/6/2 8/10/2 7/9/2
f 8/1/7 9/2/7 3/3/7
f 4/6/2 9/11/2 8/10/2
f 9/1/8 10/2/8 3/3/8
f 4/6/2 10/12/2 9/11/2
f 10/1/9 11/2/9 3/3/9
f 4/6/2 11/13/2 10/12/2
f 11/1/10 12/2/10 3/3/10
f 4/6/2 12/14/2 11/13/2
f 12/1/11 1/2/11 3/3/11
f 4/6/2 1/4/2 12/14/2

